<mxfile host="65bd71144e">
    <diagram id="2ynr90GHj4ZYSjGLNhtd" name="Bioinformatics">
        <mxGraphModel dx="960" dy="787" grid="0" gridSize="10" guides="1" tooltips="1" connect="1" arrows="1" fold="1" page="1" pageScale="1" pageWidth="1100" pageHeight="850" math="0" shadow="0">
            <root>
                <mxCell id="0"/>
                <mxCell id="1" parent="0"/>
                <mxCell id="sDJI6eV0u0uD7m1CpdAG-2" value="Bioinformatics (us-east-1)" style="points=[[0,0],[0.25,0],[0.5,0],[0.75,0],[1,0],[1,0.25],[1,0.5],[1,0.75],[1,1],[0.75,1],[0.5,1],[0.25,1],[0,1],[0,0.75],[0,0.5],[0,0.25]];outlineConnect=0;gradientColor=none;html=1;whiteSpace=wrap;fontSize=12;fontStyle=0;container=1;pointerEvents=0;collapsible=0;recursiveResize=0;shape=mxgraph.aws4.group;grIcon=mxgraph.aws4.group_aws_cloud_alt;strokeColor=#232F3E;fillColor=none;verticalAlign=top;align=left;spacingLeft=30;fontColor=#232F3E;dashed=1;" parent="1" vertex="1">
                    <mxGeometry x="89" y="298" width="875" height="476" as="geometry"/>
                </mxCell>
                <mxCell id="5" value="Start Run" style="edgeStyle=none;html=1;" edge="1" parent="sDJI6eV0u0uD7m1CpdAG-2" source="6" target="4">
                    <mxGeometry relative="1" as="geometry"/>
                </mxCell>
                <mxCell id="7" value="File Upload Event" style="edgeStyle=none;html=1;exitX=1;exitY=0.5;exitDx=0;exitDy=0;exitPerimeter=0;entryX=0;entryY=0.5;entryDx=0;entryDy=0;entryPerimeter=0;" edge="1" parent="sDJI6eV0u0uD7m1CpdAG-2" source="3" target="6">
                    <mxGeometry relative="1" as="geometry"/>
                </mxCell>
                <mxCell id="3" value="Input bucket&lt;br&gt;bioinformatics-nbs" style="sketch=0;points=[[0,0,0],[0.25,0,0],[0.5,0,0],[0.75,0,0],[1,0,0],[0,1,0],[0.25,1,0],[0.5,1,0],[0.75,1,0],[1,1,0],[0,0.25,0],[0,0.5,0],[0,0.75,0],[1,0.25,0],[1,0.5,0],[1,0.75,0]];outlineConnect=0;fontColor=#232F3E;gradientColor=#60A337;gradientDirection=north;fillColor=#277116;strokeColor=#ffffff;dashed=0;verticalLabelPosition=bottom;verticalAlign=top;align=center;html=1;fontSize=12;fontStyle=0;aspect=fixed;shape=mxgraph.aws4.resourceIcon;resIcon=mxgraph.aws4.s3;" vertex="1" parent="sDJI6eV0u0uD7m1CpdAG-2">
                    <mxGeometry x="51" y="176" width="50" height="50" as="geometry"/>
                </mxCell>
                <mxCell id="10" value="Start Run" style="edgeStyle=none;html=1;entryX=0;entryY=0.5;entryDx=0;entryDy=0;" edge="1" parent="sDJI6eV0u0uD7m1CpdAG-2" source="4" target="9">
                    <mxGeometry relative="1" as="geometry"/>
                </mxCell>
                <mxCell id="4" value="" style="sketch=0;points=[[0,0,0],[0.25,0,0],[0.5,0,0],[0.75,0,0],[1,0,0],[0,1,0],[0.25,1,0],[0.5,1,0],[0.75,1,0],[1,1,0],[0,0.25,0],[0,0.5,0],[0,0.75,0],[1,0.25,0],[1,0.5,0],[1,0.75,0]];outlineConnect=0;fontColor=#232F3E;gradientColor=#F78E04;gradientDirection=north;fillColor=#D05C17;strokeColor=#ffffff;dashed=0;verticalLabelPosition=bottom;verticalAlign=top;align=center;html=1;fontSize=12;fontStyle=0;aspect=fixed;shape=mxgraph.aws4.resourceIcon;resIcon=mxgraph.aws4.lambda;" vertex="1" parent="sDJI6eV0u0uD7m1CpdAG-2">
                    <mxGeometry x="423" y="176" width="50" height="50" as="geometry"/>
                </mxCell>
                <mxCell id="11" style="edgeStyle=none;html=1;exitX=1;exitY=0.5;exitDx=0;exitDy=0;exitPerimeter=0;" edge="1" parent="sDJI6eV0u0uD7m1CpdAG-2" source="6" target="8">
                    <mxGeometry relative="1" as="geometry"/>
                </mxCell>
                <mxCell id="12" value="Send Email &lt;br&gt;Notification" style="edgeLabel;html=1;align=center;verticalAlign=middle;resizable=0;points=[];" vertex="1" connectable="0" parent="11">
                    <mxGeometry x="0.2094" y="1" relative="1" as="geometry">
                        <mxPoint as="offset"/>
                    </mxGeometry>
                </mxCell>
                <mxCell id="6" value="Amazon EventBridge&lt;br&gt;Event Bus" style="sketch=0;points=[[0,0,0],[0.25,0,0],[0.5,0,0],[0.75,0,0],[1,0,0],[0,1,0],[0.25,1,0],[0.5,1,0],[0.75,1,0],[1,1,0],[0,0.25,0],[0,0.5,0],[0,0.75,0],[1,0.25,0],[1,0.5,0],[1,0.75,0]];outlineConnect=0;fontColor=#232F3E;gradientColor=#FF4F8B;gradientDirection=north;fillColor=#BC1356;strokeColor=#ffffff;dashed=0;verticalLabelPosition=bottom;verticalAlign=top;align=center;html=1;fontSize=12;fontStyle=0;aspect=fixed;shape=mxgraph.aws4.resourceIcon;resIcon=mxgraph.aws4.eventbridge;" vertex="1" parent="sDJI6eV0u0uD7m1CpdAG-2">
                    <mxGeometry x="228" y="176" width="50" height="50" as="geometry"/>
                </mxCell>
                <mxCell id="8" value="Simple Notification&amp;nbsp;&lt;br&gt;Service" style="sketch=0;points=[[0,0,0],[0.25,0,0],[0.5,0,0],[0.75,0,0],[1,0,0],[0,1,0],[0.25,1,0],[0.5,1,0],[0.75,1,0],[1,1,0],[0,0.25,0],[0,0.5,0],[0,0.75,0],[1,0.25,0],[1,0.5,0],[1,0.75,0]];outlineConnect=0;fontColor=#232F3E;gradientColor=#FF4F8B;gradientDirection=north;fillColor=#BC1356;strokeColor=#ffffff;dashed=0;verticalLabelPosition=bottom;verticalAlign=top;align=center;html=1;fontSize=12;fontStyle=0;aspect=fixed;shape=mxgraph.aws4.resourceIcon;resIcon=mxgraph.aws4.sns;" vertex="1" parent="sDJI6eV0u0uD7m1CpdAG-2">
                    <mxGeometry x="423" y="274" width="50" height="50" as="geometry"/>
                </mxCell>
                <mxCell id="9" value="AWS Omics" style="shape=image;verticalLabelPosition=bottom;labelBackgroundColor=default;verticalAlign=top;aspect=fixed;imageAspect=0;image=data:image/png,iVBORw0KGgoAAAANSUhEUgAAAFAAAABQCAYAAACOEfKtAAAAAXNSR0IArs4c6QAAAARnQU1BAACxjwv8YQUAAAAJcEhZcwAADsMAAA7DAcdvqGQAACR5SURBVHhenZxndJdVtsb5cvudce5c74yoiPTeu9ip0uyOd8YOSgfpCR1CTQECJBACJJRAEgi9hd6linQBFRRBKfY2o3PXvs/e5+zznvf9/wMz8+FZEZzlWvNbz97P3vs9UKrSw22o6qsviaq99rLR669QdV9vvCqqwepsVLPza1SzC+t1p1pvst6g2m+pOht17Ux1unYx6mZUl9X9zZDq9XiL6qt6djXqxeomamDVsHf3QH16iBqx+ho17tuTGr/N6kVNVP1YvUVN+1sN6EPNnPqKHhjIepseGBSoOWtwP6MhRg8O6U91n32RSlXu8BTVnjbMqU76cKozfQTVnTGC6s0YaTRzFNXPGC1qkDmGGs4yajR7LDXKSqLGc8Y5NckeT03nTqBm8yaKHpg/yShnMjXPTRY9uICVQg8tTKWHWYvS6OHFafQI9GjeFHpsyVSjpdPo8fx0o4Lp1IJVOJ1aFs6gVstmUuvlGUZFmaI2K2ZR25VGT6zKonarWXOo/RpWNrVfm00d1s0VdVw/jzpumE+dNubQk6pNufRUcS49vXmB6JktC0XPbl0kem7bYnpuex49tyOPnt+xRCAKwFpTh4rCEIdT3ekWYIkQx1LDCEQGGIWoIJsLRCMHUUEughgiADLERwGQxRBZAs+KAbZcZiC2AkBW66IMAIxCnG1BWoDxIEKdFOSmHHqKIcYBaSAupmc9iOxEAVhzSmIMxNqAWJedCEUhNsg0EA1IAFSIqjhONBChHIAUiBEnMkCFyE5czCAZogGobnQg2YmA2NJCNE40bgwgzqa2DNE6sZ11Yoe1BmAsxPnWiRAAPmUBPr3ZOFFBqhMNwPYAmJYQF6IrZ4U4cyQAMsQwSHGjhSiak+ScGAVpylkhek5cCAEgy0CM70RTzkbxytm4MezEeBBv6URbzgzxaedEC9GWMzuReyIAPmkAQrUY4pQSIGpPhAvD5TzalrMHEQBDPZE1b4KomeuJt4bILtSeqBAVZIwTLcSgnGN7YgARAkQB+TdA5FJ+qtg6MR7ASgBYI3WIOLBmGgO8jRPhQh9iCCAUDZYmXjkLQHYil3KoJ4bLWVx4C4iPL/UARiC6YIHaRMpZeiIAsm7XExkgg9R+qD3RD5UQwBriQgOxpHKWnshOFIgoZ4E4KgYiO1F7YciJJQZLJJ0twKAnaj8MuzDsRPRDgFQnGoB+OaMf+j3RuvBWThQXhiAaJ5p+uEhGHAFYLWUwVU9NEIgGpC3nEiEC4C2DxTjRh+j3Q3WilLKUswdRQBonlgQxOuKEIcb2RAbolzM7UUccAagQbbj4EE06ox9a+U40ANsBYPIgqi4QjRMFotcPoxCjc6I60YAMnCjlHC1pD6TvxHA6p1iIKRYi5kTo1sEyXRQecYxi0zk84qgTO/wtPdGDGAJYLRkAU4Y4iFrOMRDTjcycWFKwKEQLcHYsQIEIeCx1YjNAVDeack72IMbviVGIrieGICpAA7FNpCfGONGHyAAFoilpv5x5axGAVScbgCGIKOl4/bBZ5lh6PBv/R2cluZKOBgtLXRiaExlgxIUMkF34EKC1WjyNOuZnyHBtSlnLOQpxihm4PYix5WwhKkAuZQ+iA+htLOrEEETAU4jGhYAoAHOpGQOs2K6TACwJIruRxSDrAtgf82fRiM1F8rMWgEaDJdQTAZDlypkhZsGJkAFoXNgEINvmpVOPDUto8r5NADnVlrOOOOxE2w9Zi1nsRAMw5EQ7I4obpZxnxgzbsRC1J0JRiNaFzokM0kJ0AKtMHACAAwEvgKggFWJ1qAFgzTqwjc7f+JxSd2+gamlDXCmHd2cduP1g8dY+caN1JEA2hl5ZOY+WnDxIl77+gp4qzJQyjtcTdU50G8ttemK4nO2cyG4UiJm2Jwbp7Cd0+7Xoi345rw870QB8ohNVntifqkwa6EE0Mi40EPmfG6SPoOxDO+jKN1/S9H2bqSoASj/E74c2Fg4WC1AhBuVsthUFqHp15XxafuYo3fjhO3qmAADRC00/9HtiANE40UCMlrNCjClnH2Jkd+a+yOXsQ4w7J25AsKAfcrDwFccBrAwXKkRTzhAnM8QQq8GNDVDCWQe206cAmPnONqoHcE0AqEnGGGoCSE3RH5sCUjNAegCQHsgaL2o+Zzw9mD1B9NBc9Lu5k+jhedD8yU5vrVlIq84eE4BPF2RQczfieBuLdaMO274TFeJjvDvb/TkGoh1xgnS2PdECjBcs7UqCCCfyOcwAnKAAFaL2RJYpZYZZDz0vc/9WuowyKz53ggatX0qJmwqNipeJhrI2L6dhoiIatqWIhrO2rqAR21QraeS2VRB+bsdPaM6RXXTo04/oyrdf0ZP5MwEvMmx76SwuZIjSF+0pDABZPCM6J0aDBfIhmp5oIVonPrHKjjgCkZ0Yf2MRgP1DALmMwxAZYFXbD/ln3anDKGXXerr4xXX65f/+j376+Wf6+qcf6Js///g36qe4+vYvP9Ff/voL/fTLz3Ti2mXqsGR6eEYUJxqADqJ1os6ICpF7og7aClAODx7A6LDN6cwg2wLiEwKRnWhdCJl7ohcsFqIArPBER6o47m2qNKGfc6K6UZxo+yH/rI0k7r82j05//il9+vWXtO7MMRoG942Fm5K2rRaN275GNH7HWqcJrJ3raOIu1XqatNtqz3qasr+YDlz+kK5//y0tP32EWi+aErP2NedSjkCMTWdTzg5ivFL2IMY7hTFEDRbtiaYfxvZEvmoHAMf3A0QA9CBWZSd6bqyBUm6RNZG2XjhF1777hja8/x51yEmjx/B7j82ZSI+LJlELzIkt5k6mlvMw27HmJ1Pr+SnUOidV1CY3jdosmEJtoRa5qVLWXL7nbn5OiSh37ok6JwZO1I0lClGdGAvRDxZxog/SCxZ1YjRYfIgK0qSzgcifB0pVaGsABhADJ/J444LFOpFDZfzW1XT86id05toVGrV5BT2YmUS1MWhHh25Z+9zqN9Ls0DxwI6HrIXwaIXA6LU6nfIwvZ65foXXnjtNTS2dSM4SNP2z7TpRzmEA08ss5HCymnH2IDqSdFY0LoxD9nmgOEAowCtEBrJDUlyqM6xtAhBhiuCcaVcKv22RPptlI4QtwDIMcjDBpA8fVmzacaliI8QDqjMgAm80eR8/kzaBZB7fTefx33vnkAwmXZkhsHW3iQrRX7fDubIOFAaobGaLtifGcqH0xXk80EL0DRNwZkQH2CgAKPJU60Y43picOFHGglMO/6zg/jXIO76KbGDvYiRPQ/9rNS6U6CBrfhQqSZ0QF2RRjzovYZOYc2klf/vg93HeVJmMwb5GTQvVnwZkyJ1qIkBxkAdE/yvrJ7EN0pXwLiKxoKStEN2gzRO6JtpRNORuQEYAdqPyYPsaFFmRQzkFPlG1FggUgIe6HbecmUyoC4Tr6IY82K04doW4rchxA50QLsfrURGqMmfHtdUto6wenBd6RTy9h7CmiVuiN9eWuaIbtf+QUJiDtiBOA1HI2AAUiFLcnOogWJAC2LlInBhA1nflzaanyAFhuTG8qP9YANOVsIcJp2hOlHwpEEyqs2mmJ1AqhkbC+gA58fAEwPqJJSNwqKYNC/bAmwNWaNpReyJtJ8+Da91D2H2IUKr5wkvqsy5Ng4X7IAM3uzBD/wXuiCxbjRoHpnBgA9Ms5gOg70ZR0K4bolzNkIGbJd2cHsBxcWH5sxInjrRO1J0op+z3RJHOT6aPo7dWLaOyWldR5WbYBaE9h9bGttEYSD1i/hFadPkoffXmdTl/7lBYd20ddVsynB7GpNJCVz1y29figB4joZbtxNmDOBcy4fTEoawEpbjS9kSFGS1rLWUHG3hMZoDrRS2c7J/LH+1Ll23Sg+0f3shDZiQailrKWs5QyQ4wJFp0VB8ucyMN2Nax+tQGP0/mPSzPl8HDk8kVZAQ8gLNL2bKSnF6VTLezRJpn1KOvvzQqRy9nAa7UwjdrnpRth2O6wZAZ1XGrUCdtLp/wM6oQ18MnCTNFTyzLp6WWz6Onls0XPFGUZrciiZ1dm03OsVdn0/Kq58rMTfr81nBe6bBexGKIZcRhgGy5nQOQXEDEAbwXRBIspZYYo/VBAmk1FVSstgR6ZNY76wpU8bF/77mv6HCo8cZBeLphNDQCt2pQEe8WxyRw5hTmIfMEBRA6TgcWFlLpvEyXv3UjJ+Mmnr+R9xZTCwjCesn+zKPUdqwNbKE20laYcVG2jKYe20dTDkP057ch2Sju0lQbuWEGdACc04rh+qDNiMOI0cgBH9YQAcbQFGK+cQxA5WExJm55onFgZ/1wXznth4Qxacmw/+tw1udzw4P32msX06OzxVBclzfBYms7uihM6g5lyZnF/bIb+twXB8y2vfvGEdfDv059DuolA23LpLL22YSE9alNaIKoTGaIHkp1oAbansiN7CMRy7ERR2IlxIUo6a18cSBXwey0AaAwS9eDHH9Dn335Nez56n5Kxwv0B4aHDNo85Ty9Mp1cL5wCcmRONEwOIxomQFyqN4cJuaxfSyO18iAiOEKN2rBaN3rkm0C7WWhqze51oLNZFVdLeDaJx+yD5uZHG799IY/HrvluXUUekrvRFnRN5xBHZnigQjRP5IVOpcq3b030jegAiuzAMsTwgVoiUc2hOFIgDqCa2kz/lZdCs/VvpMHbaT766SStOHqb+a/KoJdY7/sJXA2XNB9gnF0ylmfu30Joz79KgDfn0cNYEARe6J3pOrO/1xAf4HMZnMO8U9khOMj3Kyk2hxxakGiF5H0e/bIGdusXiqaKWSOCWedOo1ZJ0arU0nVqLplOb/OnUtmAGtYFaQfzNWYPFJHMQLG53tsHCL8JCAMMQDcAQRMgftqvBeU2njaDX82fTmlNH6cKNz7CZfEzzMCB34KEa5cxnMD3KVk0dLKGSf/wAfYQx5t0rl2h48XJqnzuFGsJ1/B4ncGG4nKM9UYOF5X+812Q2440eIIzcQdbNiTwjmmSWdEYyazpHRxzXE7WcAZGf1VmA3SMQe9meCHmlzD/9Um46bST1XbGATn72iQzTuz88Swnr8qlu2lD0Qw4Zk856lOXvzZzOrxZk0bITh+iLH76nq998RWm7N1K73DQBaLYVONFClHLmUvYh2mHb31gEJCAyvGBjMSAFoAXp1j6BqJ9Lw3NiaMSRvdmDaHsiO5HfJwrAMsO7CUTuhQqxLAcLAMYbccrhZ6O0YTQYJcq3QU7ZOfu30XO506gWnMY9sQoHC8YbuScCIH8S0E8E9dAHee0bv22NrIKXv/6SZh/YTk/kpFEN3loEIuCp4qUzIDbMAsjIO5zosC1udPNhADHeZVvmwzhOVBcKRJS5OtECbEf3DuvqIIZAshOlnMMQK4/rR4NW59GxTy/SpS9vUMr2tdRpLko2JYEqyWG2v6QzB0s5DOPl8bP8xH5UAb9fAc6sOHmAfCJ4CMEybNMyOPiyHCUmIXBkxMHmUhXin9WxwbBqYGasAYfWRPDUgkNrzTSqnTGSameOojos7NF1oXqzx1B9wK0PhzYA4AbZSdQQA3hDDOCNoMbzAThnIjUXN2o520+mHsTb3RNDAO8d1g0Qu4sMROtC60QNlzL49fPzp9Kak0fpY8DLObiTWmSOp+qTBoXS+f6kPtQb5T111waaihJ12rOJplml7y2mvHf3yR7No8h76J/80WoGQma6Ff/zjHe2Os08sC2kjIPbjQ5tp0zV4R006/BOoyNGs4/sMjq6izLx6zG711LHgpn0ACAqQAcxziks1BNtsDTo3c0CHGoAKkTtifePghMtRAVYETvzzN2b6P1rV2j7+VPUMTtFeiLvzwyQDxAV8bP06B5U+N4BKW8+vt5OX//0o5z1+VMBl/W17/H7nq6Lvv379MO3dMOK//k6/rv80erKd1/R1otn6U+r5sGJk6QnxkAUJ1qA8R55AqIDeA8AsgKI8XsiJ/JjM8bSrgtn6Pz1q5SK0i09sjuVh9t4b9bduSJ0X1JvGr6hkPKO7qMlLDjNaL8M2aylVvkAvRszI696/O1kNUac/OMHA2GDKXA6RAUnD1Gh6tRhWqY6bcSfBVRFZ4yWi45S0dmjVID/TSo2lScLM6hZ7qRQsLiDLABqOUc/DyhEfvBeqlwrAEx8S1wYD6JJ5x50H1QR/e+tpXPoJPrVxjPv0R9y0+le/L4AtOmsCc1urI4UrsmrHfodhwurTlqiEdKYtxYOFD44dCvKoeJzJ7HyfUPtESYNZ4xCPxyF8WY0NYIaI0T4FNY4cyw1QYDwTVGEcaYZa854zImsCdR8LvobwuNBzIushzAvPoQQeTgX5Yp5UYQQedCGih4f3OFBpU60pRwtZwF4PwDenfCmQBRZiGUUopR0DyoDmAxw1PpC+uDG5zT/wA5qmDqUyqKsoxtLJYQMQ6wgYmfClShtDhgRgqQy79HJRlV5EF+SSStPHZFybpE9WS7brJp8DkOI8DmMn5LUQpDURkrXQZCw6mLUqYuU1s8E9ZDU9ZHSDTAvshoiSBoiSBohpRsBML+CaCwprbOiARiCGAoWdSIA2pJ+3EJ8MSOTAT5BpYd0CUEM90TjxDIjulElgJq4eRVdvHld+mDlpLftmBMAVIgMzfREEywxpzB7wTEf74c4gNy7WgFgbXvZDn0agIIDhHnMFIw45gnJre6JMt5YeG7YjoHIAH2IJlTcURbSg2y3pYVhgA7i0MCJCvFeqBJATSheQR/dvCYAKyFQynB5oz+yE+9HjxSNxcgDkOXHGZkDLbuQDxHBUbYayw7ZnQuzaf3Z9zAW3cT6N0kG7tB7bYwx7MKa1oW1MM6wE40b2YXGiXXFiXb4xjgT+jzgQXQzogKM40QGaEraQlQn2lI2Dmz5BN01uHMMRHGhV878syLWuxHrCujC9c8oByXcFBtHRUCtDEBVoKpwXdUJA6g6IFWfOFBUA+NNDe6F0g+HAN4gM2hbJ/KXPu6JCevzad/F8yK+2vD+rFdtBsjw6k8fKStfI+6HAMTPSZq4nqh9kXsieiF6YjMuW3FieFsJhu1bOdEv58jHe+6HAFivZ9cwQB+igIQTzYxoAqYc0viVhRl09JOPZIxZdeIw5R7cRQsP7aaFh/fQIl9H9tJiKE+FJF5+/BC1n4uxx5a0OrFx+kj5yvchnD0bs15ThEYNrH0MUCBCXL7Ju9dTEdK2AMnsxKlsk9mlM/43K5HkafuKBaB7FaYQAdcHGDhRIRqQseWMnshutE6s1wMAywLg7we9EReiX84sDpQGk4fQOgzRN9GrWJ9hl+XT1e3E8+AN/O9fysuUYNEzWDk4t8/KhbT34jl699NL1GXZXElmfVZnPg0kUj0AXIcS5/9GMBeWPBvyvLf+3HH3iYBBllTOwTcWKAZibLCoE/nP9jmArNIlQXTBYpSwajEdu3yRfvjLn+k01rCsvVsoddtaSt66RpSCHTcFvxZhVkzdvs7p8YxxApAH7uqTB9PzC9Jp7el3ZZ1bdHQvPZQxlmoCnnvkaZ3IX/YGrFtC07C9pO/dTOn7jPiZndtY3OZitpfBxYUSLLI7M8DIAULKmR95ehDNh/ugnIMXYQaimxMhB/B3A183LlSIJfREduNd+HWTlERK37Gezl27Srs/OEsvLZhBtScMpHsQNHcNe4tK4+fdcOvdSO97MGjfi42mzOiedC9UHuHCqVw/bRg9hzmSy/r8jc9oA9zVdfm80AXHXHGCp8b8saoSVDl1MFUB3CpprASqyhdu3pvRL0WyOyOAMOb4bxO1lG8XLP5HKgFoIeoBQvthve5vAmCLtvS7AQA4EC5keeXM8Ep7EE1P7Eb/M6QztcuYQIvR+75AqewBxJ4F86hhcqI5hfFFW+6J9tOANyfyfNhoyjB6AwP52lPv0pc/fE+7PjxLvVbkUk24jstan5CI5ILDEL2eqMks6Yw0hnTECe6JwQXHv+K4Ui4hWBSi9kROZx64Q28TLUT+I7oW4GsBRFvOcYMlkYPFBsqIntR6xjiag/JliGdQguk7N1DbzAl0D5ynZzA9ypbDaFMas+TD08fQxC2r6T30O4a3+uQRehl9sR5cJp8IbLAwRJkTxY3x/vSABxIjjnkpC5A8XOsJDPJBKsR4cyIrVMoOor6UjR1xHMD/6f8qFB+i70YDMQiVSnBZy+ljaRKG61NY786jpLP3baNmacMFoMyG9iefwN7Mn0PLsPfyHs29c+aeYno+Zxo1wLxXBfAUoI44Ws6he6JCjLpRAfKgLU60blSY8SDGKWftiVGI8S7bdbvFAIS4H9qeWBJEN2hDZdHrHkgdRsPWLKVl775DGbuKpR+aK04vqgpwrRAcI7AC7rxwhi59cYP2fXSOxm9ZSS35DIZZUXdnAzC8sYgTbTlzOjfE3twQ82AjFfblxhh7mrDcU2MIgJrNSpJHTCx9atx8jnlq7J4be99YeG/mdzjxylkAWojsQhb/yftS9wHgnf1eEYCiSDlzsMRAlFLWYOlKpfHrSqP7UPvMSfRsdhr9Hr+uAHc2AdiXFs6gzN3FmBuvygaz/vQx6ot+Vz8V/RKlbda+4ADhQ+Q5UbYVQOQXEK8XZNGQDflQASWI8ilhI35uLKRElvfceGjxcu+pMSRPjVfYp8Yr7VNjfW68kobhn7uuWUiP56a6claAvhO1nGMA3tnPuNA5USCGnVh6sFfK7EQdb4Z2E5C/T+giqgDnPTJtFCWuWUJ7EBBfoded/fwKTd2+nh5BD+SSLgvAFbFLK0CBKLuz+dKnu7OBOJBqI0g2Iqm/+enHWyvmWXFJ8p4YQzw3bjh/gl7gD/8o65LTOYBoAD7ehn7b92W68+2SIIZ7YjRYghGnq4w41ZL6UZe82bQBs93lr27S+59fpdwDO+n5eVOoFsqVU/n+MSZgKtgHTbEQY8uZXdijKIeSUPpjNq+gMVtX0lirJJH3zFi1fXXoqfH4neapcbznxvzveq5dDAemyAVHeiI7EaUuIBEusrl46cx/iYYD+N8AyDIQjX7X//UYiPGGbQ4WVofMiVKuJ658LNtH0bED1K8ol1rOSKLq4/u7y3YlOI9DhQMmBDFUzhoq1olwYdPpo+iRjCR6JBOaNU7Ee/OjsyfQY6wsCD3OPDWeaJ4aZ5unxvLc2D01TqE28tTYPDfmp8ZtF6TRY/j3TdEnS5oTg40FEKE6XTsHAAWiBRlAjC1n7YkK8Z6Et6j2uP7UHXMdh8jZzz6l01exnezZQi/On0p1Jg6i++WyzZ8HelBlAHt54UwavXEZPTMvjWrClfy92YcoAONAVDcGY473p0zt6lcDQ7UkNNI5SGh7DuOEdmMOpB/vJaHtn6iyG4sbcfg1WLScLUD+K10E4H/1eQkAX7IAUc62J96pTrTpzDIQTaiURe9rPCmBBhYtoHcunpdPnDvOnaJR6wqpLpKY74h8BpPLNp+9oBoTBsi6dwpjTP67++jVxRnUGFsJu5LL27jQAoTcLdH2xBBAwNN7otudvfFGAQo8kRlx/DkxBqCdEX2IMt5EIIYB9v4T/RYQBaCF6Jxo3RgacVDSd8N9TQBv9LoCuvr1l5KwC9Drnp2TQr/DplKae6O9Jd4HlZWjbHeqBbBvL8+VkYYH8P0Xz1Hv5TnUKG2oDNuysZQE0brQXHG4LypA+/qBHRgatmMh8nucwIXhQTtY+8zGwgC1nONBFIBlHmtNv+n1R7jQQGQnak8MgsUKEBngb+HQJhMTKLl4lbxIOIGtInHlYmoyOVFCRYdtDhf5NCAg9ftKT6qGku80J5my9m4ViCeufkxjNi2nJljxyiJgtJwVoEiDRdNZBu1gTvSdqABLduKtL9sOYmTY9p+QsPhvZ3IAf9MbEK0TDchwOSvE/4YqDe9JIzE4n0GvO3XlE+qNPZjdeB8nMdyn6ayzog9RQVZFWrecmeS2mAOXLtDw9QVUAz1RXOj1RAczzogTb+2LlrOCLBmiBRnnLY7uzgLR7s8Kkf+aqwAguxAAYyFqOhuQd8Chr8xPp21nT8jqNmFjEdUa2w8l/WYQLi6dTULrEUIlIHlfxrzIax9/Hnj38kXaeOYYdYQzqwBWFKK6MBwsABiBKHuzD1HLOY4TBaANFn2LE/REH6IB6EMMAbyj5/+GIVqA8XrivRim5+/dRp9gJduJwOiYASsn9adaUJ1xA6gua/xAqjdhkFP9iYOp/qQh1IA1eQg1nJxADZNZiVQPv35tcSZtOvMeduTPaOzG5VRr0iA33ijEUCm7OdHuzR5Ec8UJ9mYHsYRyDiAGTvR7YhAsHkTrQgfw1z1eDEH8je9ED+LvMda0mjqadp8/TTe++5a2v3+Sei3NpkFFC2nwikU0xFMCeiIrcWUeJa6CVhsNXb2EhmJDYQ1bu1Q0CqW7+exxuobZkV87NEodShX4FMZf+ziZPScKTAtQylmDRfuhX84lHB8UooJUiMEpzH9aZwCKbDmrC/lvrCtV5lEA7P4HARgDEcFiRpyX5eddmAd7LM6i45cv0S9//Sv9+Zef5ST11Y/f09c//vCP66cfiP+k5s/4b35483N6YMoIc0vkU5h3S3QA1Y1QeE6M9ESX0Awx6IkhiABontUBpKRzUM7cE40TIz3RujEEUF0YU862pBloaQAcCQddQO9bc/wwdVs8m7rnZVGPvDkQfi7BzyXZ1BOudMqfS72sOGx6F8yn3oVGfZblUF+MMH2gKdvXyZWG3ws2n8oA7WswCzEGpCvn6LDtQYxJZ6+cIX5yrE6Uc1hoxIELbTnH9kTjxJpdXmOArehXAMi6QyBGytmC5JS+GwAnb1xBlzDzpWCEuRtD9X3YRMomdKWyiV3pfqgchutyw7qLyg/vYYTUrTCiJ1Uc2Ysqjuot4utNZbisCnodbycvYFcuxCbDZdwcDuSVzx1lLcAQRN2d2YXRYJERx/7xC4Vot5UQxDjlHH5qHIw3YYimnAXgvQyw2wsQXOggGif6IO+A2IFTt6yRABm3fhn9qtf/SjqHDhB20Nbjgyq6O7s5EUM2bytPZiVT/pF9ApBLuBwSWh95xoOo5awlHR629SgbQPRXvpJ6ogZL6O/EgWKdaHpijc4W4H92fV4AqhN/3T22nH8N3QVI7MDTmNtGrFxCv8K/j15x/HuirnwqHnV0vHFHWfs2scOsyXK1+eDGZ9QUqx2PODx0R58a+wD1j6TpFSdazuYUZsrZpLOFeItgqeNfth3AMEQtZf6rUAXgf7z1PCAaFyrIaE9kB96JMGmZNkqCpEXqSOmLDNCtfZ4TzcoHRY4PzoWQGbbNKazexEH0h/lTaODKRVQdm0pZOUCYp3UGYvBC1gcpf0zXK2dNaIXITtR0dhBdTwwg+seHwIm3TmcD8JFW9O9vPicu/E9bys6Jccq5zMDOVGVoD7pvUJdgVowLUU9hAcQYkAzQQiyHPlkd2wnPi3y90Wd1PsRoObtZ0UL0AcbriS6ddcT5m9LZQIw3J/JfylvqHgvwP96CfIhxnKgQWW7gFoAlQQzKWU9hfNX2IQpAz4l6gNCXsg6ifGPxeqKbE/1kvkU5RyCyE/UAUWKwWIgC0EEEQAsxFqBC1HKO40QBaPdmnRP9bSWuE9WFIriwBIjyeQA90QCMQFSAkOuJFmS8UIl1YhiilnMAEQDjQbQlrRBdqEDV33iFAbakf+vyLCA+6yBKOTNEC1AhKsiwC2NPYbI3y/Eh0hMBUBWvLxon2jOYykLkWyJD1K992hO1pKWULUgBqBA1nd0RwkIEvOiIIyDjlLP2xChE/ju2BeC/dn4mPkSUs5S0QuR07hEuZXFjnFOYOjF0lPVA+gkdhSjfWABPQfKjJr4nCkTXE9mJOmybclaQIYiQK2cL0EHkcrZOdOmsF+04TnQ9kbcVQDQAHwbAN54GwGcEoA9Re2IIYsSJd2AW9J0YXLYBMAQRAAFPytlzY0lONOUchsjBohBNOXvBYgHeGmLgxFBP9J14m57oOzEE8F87W4jWif8OgCwuZdMTwxDViQpSIEJhJ/pf+yA4UOZED6Lvwthytj2RIbqeyADD5RyTzl45q+QM5kOUnmj+6gLdm//ecua/Nj8MUEo5cKIJF+6HRgqRS9mHqOUchqg9kQEaaU90EAVgGGIYoO2JABkOlliIJc2JDiA7EQDdUVaCxbjQQZR0tqcwD2L0b/EUiNhWLMAW9C+vP0X/IhABUPuhONGWslfODFGODwrRc6GDyKHCchCNE81V209nLuPXvXTmbcVAFIAqBuhc6EM0AH2IJR0fXDm7EYedGPsOp3qyHmRvD1EA3g2A//zakx7EwI2BC2MhSjn3sOVsIfK2cgcAmlOY1w/ViQxRy1kgGpBm7bPynQh4OmxLT1SQApMheiBdsChICxEKudDKBYs6ET/NjHj7tU/6IeQA/hMD9CFaOTcCosiDaILFlnQEYuBEBWm/O1uIridCMRC9ci6dAJC8Nzsn2nJ2EO0nUx+iAPTcaOfEGCc6iFrOscM290R1YryNpeqrL9H/Awvw4T05dDnmAAAAAElFTkSuQmCC;" vertex="1" parent="sDJI6eV0u0uD7m1CpdAG-2">
                    <mxGeometry x="571" y="173" width="50" height="50" as="geometry"/>
                </mxCell>
                <mxCell id="13" value="&lt;a href=&quot;https://aws.amazon.com/blogs/industries/automated-end-to-end-genomics-data-storage-and-analysis-using-amazon-omics/&quot;&gt;Part 2: Automated End-to-End Genomics Data Storage and Analysis using Amazon Omics | AWS for Industries&lt;/a&gt;" style="text;whiteSpace=wrap;html=1;" vertex="1" parent="1">
                    <mxGeometry x="91" y="46" width="550" height="51" as="geometry"/>
                </mxCell>
            </root>
        </mxGraphModel>
    </diagram>
    <diagram id="zxqguAOSIUkq-bdtBaQS" name="Azure Example">
        <mxGraphModel dx="960" dy="787" grid="1" gridSize="10" guides="1" tooltips="1" connect="1" arrows="1" fold="1" page="1" pageScale="1" pageWidth="850" pageHeight="1100" math="0" shadow="0">
            <root>
                <mxCell id="0"/>
                <mxCell id="1" parent="0"/>
                <mxCell id="7PEQJ0GNF5ol1b0nWfgi-1" value="" style="rounded=0;whiteSpace=wrap;html=1;fillColor=none;dashed=1;labelBackgroundColor=none;" parent="1" vertex="1">
                    <mxGeometry x="160" y="40" width="1170" height="370" as="geometry"/>
                </mxCell>
                <mxCell id="7PEQJ0GNF5ol1b0nWfgi-2" style="edgeStyle=orthogonalEdgeStyle;rounded=0;orthogonalLoop=1;jettySize=auto;html=1;dashed=1;labelBackgroundColor=none;" parent="1" source="7PEQJ0GNF5ol1b0nWfgi-40" target="7PEQJ0GNF5ol1b0nWfgi-24" edge="1">
                    <mxGeometry relative="1" as="geometry"/>
                </mxCell>
                <mxCell id="7PEQJ0GNF5ol1b0nWfgi-3" style="edgeStyle=orthogonalEdgeStyle;rounded=0;orthogonalLoop=1;jettySize=auto;html=1;endArrow=none;endFill=0;fillColor=#dae8fc;strokeColor=#6c8ebf;labelBackgroundColor=none;" parent="1" source="7PEQJ0GNF5ol1b0nWfgi-40" target="7PEQJ0GNF5ol1b0nWfgi-26" edge="1">
                    <mxGeometry relative="1" as="geometry">
                        <Array as="points">
                            <mxPoint x="730" y="190"/>
                            <mxPoint x="730" y="190"/>
                        </Array>
                    </mxGeometry>
                </mxCell>
                <mxCell id="7PEQJ0GNF5ol1b0nWfgi-4" value="Metric Data&lt;br&gt;Audit &amp;amp; Diagnostic Logs" style="edgeStyle=orthogonalEdgeStyle;rounded=0;orthogonalLoop=1;jettySize=auto;html=1;labelBackgroundColor=none;dashed=1;" parent="1" source="7PEQJ0GNF5ol1b0nWfgi-40" target="7PEQJ0GNF5ol1b0nWfgi-36" edge="1">
                    <mxGeometry relative="1" as="geometry">
                        <Array as="points">
                            <mxPoint x="1110" y="125"/>
                            <mxPoint x="1110" y="125"/>
                        </Array>
                    </mxGeometry>
                </mxCell>
                <mxCell id="7PEQJ0GNF5ol1b0nWfgi-5" style="edgeStyle=orthogonalEdgeStyle;rounded=0;orthogonalLoop=1;jettySize=auto;html=1;fillColor=#dae8fc;strokeColor=#6c8ebf;labelBackgroundColor=none;" parent="1" source="7PEQJ0GNF5ol1b0nWfgi-8" target="7PEQJ0GNF5ol1b0nWfgi-40" edge="1">
                    <mxGeometry relative="1" as="geometry">
                        <Array as="points">
                            <mxPoint x="710" y="120"/>
                            <mxPoint x="710" y="120"/>
                        </Array>
                    </mxGeometry>
                </mxCell>
                <mxCell id="7PEQJ0GNF5ol1b0nWfgi-6" style="edgeStyle=orthogonalEdgeStyle;rounded=0;orthogonalLoop=1;jettySize=auto;html=1;dashed=1;labelBackgroundColor=none;entryX=0.5;entryY=1;entryDx=0;entryDy=0;" parent="1" source="7PEQJ0GNF5ol1b0nWfgi-8" target="7PEQJ0GNF5ol1b0nWfgi-36" edge="1">
                    <mxGeometry relative="1" as="geometry">
                        <mxPoint x="1250" y="300" as="targetPoint"/>
                        <Array as="points">
                            <mxPoint x="458" y="340"/>
                            <mxPoint x="1250" y="340"/>
                        </Array>
                    </mxGeometry>
                </mxCell>
                <mxCell id="7PEQJ0GNF5ol1b0nWfgi-7" value="Diagnostic Logs &amp;amp; Metric Data" style="edgeLabel;html=1;align=center;verticalAlign=middle;resizable=0;points=[];labelBackgroundColor=none;" parent="7PEQJ0GNF5ol1b0nWfgi-6" vertex="1" connectable="0">
                    <mxGeometry x="-0.561" relative="1" as="geometry">
                        <mxPoint x="6" y="-7" as="offset"/>
                    </mxGeometry>
                </mxCell>
                <mxCell id="7PEQJ0GNF5ol1b0nWfgi-8" value="" style="rounded=0;whiteSpace=wrap;html=1;dashed=1;labelBackgroundColor=none;fillColor=#E6E6E6;strokeColor=none;" parent="1" vertex="1">
                    <mxGeometry x="290" y="100.5" width="336" height="180" as="geometry"/>
                </mxCell>
                <mxCell id="7PEQJ0GNF5ol1b0nWfgi-9" value="" style="rounded=0;whiteSpace=wrap;html=1;dashed=1;fillColor=#E6E6E6;strokeColor=none;labelBackgroundColor=none;" parent="1" vertex="1">
                    <mxGeometry x="300" y="290" width="140" height="85" as="geometry"/>
                </mxCell>
                <mxCell id="7PEQJ0GNF5ol1b0nWfgi-10" value="Azure Active Directory" style="aspect=fixed;html=1;points=[];align=center;image;fontSize=12;image=img/lib/azure2/identity/Azure_Active_Directory.svg;fontFamily=Helvetica;fontColor=default;strokeColor=none;fillColor=#00BEF2;labelPosition=center;verticalLabelPosition=top;verticalAlign=bottom;labelBackgroundColor=none;" parent="1" vertex="1">
                    <mxGeometry x="49.75" y="20" width="62.5" height="70" as="geometry"/>
                </mxCell>
                <mxCell id="7PEQJ0GNF5ol1b0nWfgi-11" value="DNS Lookup" style="edgeStyle=orthogonalEdgeStyle;rounded=0;orthogonalLoop=1;jettySize=auto;html=1;dashed=1;labelBackgroundColor=none;" parent="1" source="7PEQJ0GNF5ol1b0nWfgi-14" target="7PEQJ0GNF5ol1b0nWfgi-15" edge="1">
                    <mxGeometry relative="1" as="geometry"/>
                </mxCell>
                <mxCell id="7PEQJ0GNF5ol1b0nWfgi-12" value="Authentication" style="edgeStyle=orthogonalEdgeStyle;rounded=0;orthogonalLoop=1;jettySize=auto;html=1;dashed=1;labelBackgroundColor=none;" parent="1" source="7PEQJ0GNF5ol1b0nWfgi-14" target="7PEQJ0GNF5ol1b0nWfgi-10" edge="1">
                    <mxGeometry relative="1" as="geometry"/>
                </mxCell>
                <mxCell id="7PEQJ0GNF5ol1b0nWfgi-13" style="edgeStyle=orthogonalEdgeStyle;rounded=0;orthogonalLoop=1;jettySize=auto;html=1;fillColor=#dae8fc;strokeColor=#6c8ebf;labelBackgroundColor=none;" parent="1" source="7PEQJ0GNF5ol1b0nWfgi-14" target="7PEQJ0GNF5ol1b0nWfgi-17" edge="1">
                    <mxGeometry relative="1" as="geometry"/>
                </mxCell>
                <mxCell id="7PEQJ0GNF5ol1b0nWfgi-14" value="Internet" style="shape=image;html=1;verticalAlign=middle;verticalLabelPosition=middle;labelBackgroundColor=none;imageAspect=0;aspect=fixed;image=https://cdn4.iconfinder.com/data/icons/for-your-interface-free-samples/128/Globe-128.png;labelPosition=left;align=right;" parent="1" vertex="1">
                    <mxGeometry x="47.25" y="171" width="65" height="65" as="geometry"/>
                </mxCell>
                <mxCell id="7PEQJ0GNF5ol1b0nWfgi-15" value="Azure DNS" style="aspect=fixed;html=1;points=[];align=center;image;fontSize=12;image=img/lib/azure2/networking/DNS_Zones.svg;labelBackgroundColor=none;" parent="1" vertex="1">
                    <mxGeometry x="55.63" y="330" width="48.25" height="48.25" as="geometry"/>
                </mxCell>
                <mxCell id="7PEQJ0GNF5ol1b0nWfgi-16" style="edgeStyle=orthogonalEdgeStyle;rounded=0;orthogonalLoop=1;jettySize=auto;html=1;fillColor=#dae8fc;strokeColor=#6c8ebf;labelBackgroundColor=none;" parent="1" source="7PEQJ0GNF5ol1b0nWfgi-17" target="7PEQJ0GNF5ol1b0nWfgi-33" edge="1">
                    <mxGeometry relative="1" as="geometry">
                        <Array as="points">
                            <mxPoint x="290" y="204"/>
                            <mxPoint x="290" y="204"/>
                        </Array>
                    </mxGeometry>
                </mxCell>
                <mxCell id="7PEQJ0GNF5ol1b0nWfgi-17" value="Azure Front Door&lt;br&gt;WAF&lt;br&gt;CDN" style="aspect=fixed;html=1;points=[];align=center;image;fontSize=12;image=img/lib/azure2/networking/Front_Doors.svg;labelPosition=center;verticalLabelPosition=top;verticalAlign=bottom;labelBackgroundColor=none;" parent="1" vertex="1">
                    <mxGeometry x="191" y="174" width="68" height="60" as="geometry"/>
                </mxCell>
                <mxCell id="7PEQJ0GNF5ol1b0nWfgi-18" style="edgeStyle=orthogonalEdgeStyle;rounded=0;orthogonalLoop=1;jettySize=auto;html=1;fillColor=#dae8fc;strokeColor=#6c8ebf;labelBackgroundColor=none;" parent="1" source="7PEQJ0GNF5ol1b0nWfgi-33" target="7PEQJ0GNF5ol1b0nWfgi-20" edge="1">
                    <mxGeometry relative="1" as="geometry">
                        <Array as="points">
                            <mxPoint x="410" y="204"/>
                            <mxPoint x="410" y="204"/>
                        </Array>
                    </mxGeometry>
                </mxCell>
                <mxCell id="7PEQJ0GNF5ol1b0nWfgi-19" style="edgeStyle=orthogonalEdgeStyle;rounded=0;orthogonalLoop=1;jettySize=auto;html=1;fillColor=#dae8fc;strokeColor=#6c8ebf;labelBackgroundColor=none;" parent="1" source="7PEQJ0GNF5ol1b0nWfgi-20" target="7PEQJ0GNF5ol1b0nWfgi-30" edge="1">
                    <mxGeometry relative="1" as="geometry">
                        <Array as="points">
                            <mxPoint x="520" y="204"/>
                            <mxPoint x="520" y="204"/>
                        </Array>
                    </mxGeometry>
                </mxCell>
                <mxCell id="7PEQJ0GNF5ol1b0nWfgi-20" value="Queue" style="verticalLabelPosition=top;html=1;verticalAlign=bottom;align=center;strokeColor=none;fillColor=#00BEF2;shape=mxgraph.azure.storage_queue;labelPosition=center;labelBackgroundColor=none;" parent="1" vertex="1">
                    <mxGeometry x="437" y="181.5" width="50" height="45" as="geometry"/>
                </mxCell>
                <mxCell id="7PEQJ0GNF5ol1b0nWfgi-21" style="edgeStyle=orthogonalEdgeStyle;rounded=0;orthogonalLoop=1;jettySize=auto;html=1;fillColor=#dae8fc;strokeColor=#6c8ebf;labelBackgroundColor=none;" parent="1" source="7PEQJ0GNF5ol1b0nWfgi-22" target="7PEQJ0GNF5ol1b0nWfgi-17" edge="1">
                    <mxGeometry relative="1" as="geometry"/>
                </mxCell>
                <mxCell id="7PEQJ0GNF5ol1b0nWfgi-22" value="Blob" style="verticalLabelPosition=bottom;html=1;verticalAlign=top;align=center;strokeColor=none;fillColor=#00BEF2;shape=mxgraph.azure.storage_blob;labelBackgroundColor=none;" parent="1" vertex="1">
                    <mxGeometry x="310" y="305" width="50" height="45" as="geometry"/>
                </mxCell>
                <mxCell id="7PEQJ0GNF5ol1b0nWfgi-23" style="edgeStyle=orthogonalEdgeStyle;rounded=0;orthogonalLoop=1;jettySize=auto;html=1;fillColor=#dae8fc;strokeColor=#6c8ebf;labelBackgroundColor=none;" parent="1" source="7PEQJ0GNF5ol1b0nWfgi-24" target="7PEQJ0GNF5ol1b0nWfgi-8" edge="1">
                    <mxGeometry relative="1" as="geometry">
                        <Array as="points">
                            <mxPoint x="680" y="264"/>
                            <mxPoint x="680" y="264"/>
                        </Array>
                    </mxGeometry>
                </mxCell>
                <mxCell id="7PEQJ0GNF5ol1b0nWfgi-24" value="Azure Search" style="aspect=fixed;html=1;points=[];align=center;image;fontSize=12;image=img/lib/azure2/app_services/Search_Services.svg;labelBackgroundColor=none;" parent="1" vertex="1">
                    <mxGeometry x="854" y="236" width="72" height="52" as="geometry"/>
                </mxCell>
                <mxCell id="7PEQJ0GNF5ol1b0nWfgi-25" style="rounded=0;orthogonalLoop=1;jettySize=auto;html=1;edgeStyle=orthogonalEdgeStyle;fillColor=#dae8fc;strokeColor=#6c8ebf;labelBackgroundColor=none;" parent="1" source="7PEQJ0GNF5ol1b0nWfgi-26" target="7PEQJ0GNF5ol1b0nWfgi-8" edge="1">
                    <mxGeometry relative="1" as="geometry">
                        <Array as="points">
                            <mxPoint x="640" y="190"/>
                            <mxPoint x="640" y="190"/>
                        </Array>
                    </mxGeometry>
                </mxCell>
                <mxCell id="7PEQJ0GNF5ol1b0nWfgi-26" value="Redis Cache" style="aspect=fixed;html=1;points=[];align=center;image;fontSize=12;image=img/lib/azure2/databases/Cache_Redis.svg;labelBackgroundColor=none;" parent="1" vertex="1">
                    <mxGeometry x="650" y="160" width="64" height="52" as="geometry"/>
                </mxCell>
                <mxCell id="7PEQJ0GNF5ol1b0nWfgi-27" value="Static Content" style="aspect=fixed;html=1;points=[];align=center;image;fontSize=12;image=img/lib/azure2/general/File.svg;labelBackgroundColor=none;" parent="1" vertex="1">
                    <mxGeometry x="379" y="305" width="36.51" height="45" as="geometry"/>
                </mxCell>
                <mxCell id="7PEQJ0GNF5ol1b0nWfgi-28" value="Resource Group" style="aspect=fixed;html=1;points=[];align=center;image;fontSize=12;image=img/lib/azure2/general/Resource_Groups.svg;dashed=1;fillColor=none;labelBackgroundColor=none;" parent="1" vertex="1">
                    <mxGeometry x="150" y="390" width="30" height="28.24" as="geometry"/>
                </mxCell>
                <mxCell id="7PEQJ0GNF5ol1b0nWfgi-29" value="" style="group;labelBackgroundColor=none;strokeColor=none;" parent="1" vertex="1" connectable="0">
                    <mxGeometry x="525" y="111" width="90" height="159" as="geometry"/>
                </mxCell>
                <mxCell id="7PEQJ0GNF5ol1b0nWfgi-30" value="" style="rounded=0;whiteSpace=wrap;html=1;dashed=1;labelBackgroundColor=none;fillColor=#FFFFFF;labelPosition=center;verticalLabelPosition=top;align=center;verticalAlign=bottom;spacingTop=0;spacingBottom=-35;strokeColor=none;" parent="7PEQJ0GNF5ol1b0nWfgi-29" vertex="1">
                    <mxGeometry width="90" height="159" as="geometry"/>
                </mxCell>
                <mxCell id="7PEQJ0GNF5ol1b0nWfgi-31" value="Function App" style="aspect=fixed;html=1;points=[];align=center;image;fontSize=12;image=img/lib/azure2/compute/Function_Apps.svg;labelPosition=center;verticalLabelPosition=top;verticalAlign=bottom;labelBackgroundColor=none;" parent="7PEQJ0GNF5ol1b0nWfgi-29" vertex="1">
                    <mxGeometry x="11" y="83" width="68" height="60" as="geometry"/>
                </mxCell>
                <mxCell id="7PEQJ0GNF5ol1b0nWfgi-32" value="" style="group;labelBackgroundColor=none;strokeColor=none;" parent="1" vertex="1" connectable="0">
                    <mxGeometry x="303" y="111" width="90" height="159" as="geometry"/>
                </mxCell>
                <mxCell id="7PEQJ0GNF5ol1b0nWfgi-33" value="App Service Plan" style="rounded=0;whiteSpace=wrap;html=1;dashed=1;labelBackgroundColor=none;fillColor=#FFFFFF;labelPosition=center;verticalLabelPosition=top;align=center;verticalAlign=bottom;spacingTop=0;spacingBottom=-35;strokeColor=none;" parent="7PEQJ0GNF5ol1b0nWfgi-32" vertex="1">
                    <mxGeometry width="90" height="159" as="geometry"/>
                </mxCell>
                <mxCell id="7PEQJ0GNF5ol1b0nWfgi-34" value="Web App" style="aspect=fixed;html=1;points=[];align=center;image;fontSize=12;image=img/lib/azure2/compute/App_Services.svg;labelPosition=center;verticalLabelPosition=top;verticalAlign=bottom;labelBackgroundColor=none;" parent="7PEQJ0GNF5ol1b0nWfgi-32" vertex="1">
                    <mxGeometry x="13" y="81" width="64" height="64" as="geometry"/>
                </mxCell>
                <mxCell id="7PEQJ0GNF5ol1b0nWfgi-35" value="" style="group;labelBackgroundColor=none;strokeColor=none;" parent="1" vertex="1" connectable="0">
                    <mxGeometry x="1190" y="50" width="120" height="230" as="geometry"/>
                </mxCell>
                <mxCell id="7PEQJ0GNF5ol1b0nWfgi-36" value="" style="rounded=0;whiteSpace=wrap;html=1;dashed=1;labelBackgroundColor=none;fillColor=#E6E6E6;strokeColor=none;" parent="7PEQJ0GNF5ol1b0nWfgi-35" vertex="1">
                    <mxGeometry width="120" height="230" as="geometry"/>
                </mxCell>
                <mxCell id="7PEQJ0GNF5ol1b0nWfgi-37" value="Azure Monitor" style="aspect=fixed;html=1;points=[];align=center;image;fontSize=12;image=img/lib/azure2/management_governance/Monitor.svg;dashed=1;labelBackgroundColor=none;fillColor=#FFFFFF;" parent="7PEQJ0GNF5ol1b0nWfgi-35" vertex="1">
                    <mxGeometry x="28" y="15" width="64" height="64" as="geometry"/>
                </mxCell>
                <mxCell id="7PEQJ0GNF5ol1b0nWfgi-38" value="Log Analytics" style="aspect=fixed;html=1;points=[];align=center;image;fontSize=12;image=img/lib/azure2/analytics/Log_Analytics_Workspaces.svg;dashed=1;labelBackgroundColor=none;fillColor=#FFFFFF;" parent="7PEQJ0GNF5ol1b0nWfgi-35" vertex="1">
                    <mxGeometry x="28" y="120" width="64" height="64" as="geometry"/>
                </mxCell>
                <mxCell id="7PEQJ0GNF5ol1b0nWfgi-39" value="" style="group;labelBackgroundColor=none;strokeColor=none;" parent="1" vertex="1" connectable="0">
                    <mxGeometry x="740" y="50" width="300" height="150" as="geometry"/>
                </mxCell>
                <mxCell id="7PEQJ0GNF5ol1b0nWfgi-40" value="" style="rounded=0;whiteSpace=wrap;html=1;dashed=1;labelBackgroundColor=none;fillColor=#E6E6E6;strokeColor=none;" parent="7PEQJ0GNF5ol1b0nWfgi-39" vertex="1">
                    <mxGeometry width="300" height="150" as="geometry"/>
                </mxCell>
                <mxCell id="7PEQJ0GNF5ol1b0nWfgi-41" value="Azure SQL Database" style="aspect=fixed;html=1;points=[];align=center;image;fontSize=12;image=img/lib/azure2/databases/SQL_Database.svg;labelBackgroundColor=none;" parent="7PEQJ0GNF5ol1b0nWfgi-39" vertex="1">
                    <mxGeometry x="50" y="10" width="48" height="64" as="geometry"/>
                </mxCell>
                <mxCell id="7PEQJ0GNF5ol1b0nWfgi-42" value="Azure Cosmos Database" style="aspect=fixed;html=1;points=[];align=center;image;fontSize=12;image=img/lib/azure2/databases/Azure_Cosmos_DB.svg;labelBackgroundColor=none;" parent="7PEQJ0GNF5ol1b0nWfgi-39" vertex="1">
                    <mxGeometry x="190" y="10" width="64" height="64" as="geometry"/>
                </mxCell>
                <mxCell id="7PEQJ0GNF5ol1b0nWfgi-43" value="" style="rounded=0;whiteSpace=wrap;html=1;dashed=1;labelBackgroundColor=none;fillColor=#E6E6E6;strokeColor=none;" parent="1" vertex="1">
                    <mxGeometry x="294" y="480" width="336" height="180" as="geometry"/>
                </mxCell>
                <mxCell id="7PEQJ0GNF5ol1b0nWfgi-44" style="edgeStyle=orthogonalEdgeStyle;rounded=0;orthogonalLoop=1;jettySize=auto;html=1;fillColor=#dae8fc;strokeColor=#6c8ebf;labelBackgroundColor=none;" parent="1" source="7PEQJ0GNF5ol1b0nWfgi-51" target="7PEQJ0GNF5ol1b0nWfgi-46" edge="1">
                    <mxGeometry relative="1" as="geometry">
                        <Array as="points">
                            <mxPoint x="414" y="583.5"/>
                            <mxPoint x="414" y="583.5"/>
                        </Array>
                    </mxGeometry>
                </mxCell>
                <mxCell id="7PEQJ0GNF5ol1b0nWfgi-45" style="edgeStyle=orthogonalEdgeStyle;rounded=0;orthogonalLoop=1;jettySize=auto;html=1;fillColor=#dae8fc;strokeColor=#6c8ebf;labelBackgroundColor=none;" parent="1" source="7PEQJ0GNF5ol1b0nWfgi-46" target="7PEQJ0GNF5ol1b0nWfgi-48" edge="1">
                    <mxGeometry relative="1" as="geometry">
                        <Array as="points">
                            <mxPoint x="524" y="583.5"/>
                            <mxPoint x="524" y="583.5"/>
                        </Array>
                    </mxGeometry>
                </mxCell>
                <mxCell id="7PEQJ0GNF5ol1b0nWfgi-46" value="Queue" style="verticalLabelPosition=top;html=1;verticalAlign=bottom;align=center;strokeColor=none;fillColor=#00BEF2;shape=mxgraph.azure.storage_queue;labelPosition=center;labelBackgroundColor=none;" parent="1" vertex="1">
                    <mxGeometry x="441" y="561" width="50" height="45" as="geometry"/>
                </mxCell>
                <mxCell id="7PEQJ0GNF5ol1b0nWfgi-47" value="" style="group;labelBackgroundColor=none;strokeColor=none;" parent="1" vertex="1" connectable="0">
                    <mxGeometry x="529" y="490.5" width="90" height="159" as="geometry"/>
                </mxCell>
                <mxCell id="7PEQJ0GNF5ol1b0nWfgi-48" value="" style="rounded=0;whiteSpace=wrap;html=1;dashed=1;labelBackgroundColor=none;fillColor=#FFFFFF;labelPosition=center;verticalLabelPosition=top;align=center;verticalAlign=bottom;spacingTop=0;spacingBottom=-35;strokeColor=none;" parent="7PEQJ0GNF5ol1b0nWfgi-47" vertex="1">
                    <mxGeometry width="90" height="159" as="geometry"/>
                </mxCell>
                <mxCell id="7PEQJ0GNF5ol1b0nWfgi-49" value="Function App" style="aspect=fixed;html=1;points=[];align=center;image;fontSize=12;image=img/lib/azure2/compute/Function_Apps.svg;labelPosition=center;verticalLabelPosition=top;verticalAlign=bottom;labelBackgroundColor=none;" parent="7PEQJ0GNF5ol1b0nWfgi-47" vertex="1">
                    <mxGeometry x="11" y="83" width="68" height="60" as="geometry"/>
                </mxCell>
                <mxCell id="7PEQJ0GNF5ol1b0nWfgi-50" value="" style="group;labelBackgroundColor=none;strokeColor=none;" parent="1" vertex="1" connectable="0">
                    <mxGeometry x="307" y="490.5" width="90" height="159" as="geometry"/>
                </mxCell>
                <mxCell id="7PEQJ0GNF5ol1b0nWfgi-51" value="App Service Plan" style="rounded=0;whiteSpace=wrap;html=1;dashed=1;labelBackgroundColor=none;fillColor=#FFFFFF;labelPosition=center;verticalLabelPosition=top;align=center;verticalAlign=bottom;spacingTop=0;spacingBottom=-35;strokeColor=none;" parent="7PEQJ0GNF5ol1b0nWfgi-50" vertex="1">
                    <mxGeometry width="90" height="159" as="geometry"/>
                </mxCell>
                <mxCell id="7PEQJ0GNF5ol1b0nWfgi-52" value="Web App" style="aspect=fixed;html=1;points=[];align=center;image;fontSize=12;image=img/lib/azure2/compute/App_Services.svg;labelPosition=center;verticalLabelPosition=top;verticalAlign=bottom;labelBackgroundColor=none;" parent="7PEQJ0GNF5ol1b0nWfgi-50" vertex="1">
                    <mxGeometry x="13" y="81" width="64" height="64" as="geometry"/>
                </mxCell>
            </root>
        </mxGraphModel>
    </diagram>
    <diagram id="AcmgAoW3Mhnuy_hRboJL" name="Omics">
        <mxGraphModel dx="960" dy="787" grid="1" gridSize="10" guides="1" tooltips="1" connect="1" arrows="1" fold="1" page="1" pageScale="1" pageWidth="1100" pageHeight="850" math="0" shadow="0">
            <root>
                <mxCell id="0"/>
                <mxCell id="1" parent="0"/>
                <mxCell id="-8_Be-gNX2QEH6tEGkGb-1" value="" style="shape=image;verticalLabelPosition=bottom;labelBackgroundColor=default;verticalAlign=top;aspect=fixed;imageAspect=0;image=https://d2908q01vomqb2.cloudfront.net/c5b76da3e608d34edb07244cd9b875ee86906328/2022/11/28/Figure-1-Amazon-Omics-How-it-works-across-storage-workflows-and-analytics-1024x471.png;" vertex="1" parent="1">
                    <mxGeometry x="80" y="102.12" width="887.45" height="407.88" as="geometry"/>
                </mxCell>
                <mxCell id="-8_Be-gNX2QEH6tEGkGb-3" value="&lt;span style=&quot;color: rgb(51, 51, 51); font-family: AmazonEmber, &amp;quot;Helvetica Neue&amp;quot;, Helvetica, Arial, sans-serif; font-size: 14px; font-style: normal; font-variant-ligatures: normal; font-variant-caps: normal; font-weight: 400; letter-spacing: normal; orphans: 2; text-align: start; text-indent: 0px; text-transform: none; widows: 2; word-spacing: 0px; -webkit-text-stroke-width: 0px; text-decoration-thickness: initial; text-decoration-style: initial; text-decoration-color: initial; float: none; display: inline !important;&quot;&gt;Importantly, since all sequencing instruments are rated in gigabases per run (for example, a human genome contains three billion bases or three gigabases),&lt;br&gt;&lt;br&gt;The output of DNA sequencing analysis are raw genomic variants in the form of Variant Call Files (VCF) and Genomic Variant Call Files (gVCF). Customers want to query these variants and identify their clinical significance by assigning meaning to them through annotations (for example, identifying a variant that results in a faulty gene which produces a cancer-causing protein).&amp;nbsp;These text-based VCF, however, are not optimized for querying given their semi-structured nature.&amp;nbsp;While genomes may be analyzed on an individual level, many customers are looking at querying thousands of variants (if not more) across many genes at once to understand how genomic variation, joined with corresponding clinical data, may affect human health or predict clinical outcomes.&lt;br&gt;&lt;/span&gt;" style="text;whiteSpace=wrap;html=1;" vertex="1" parent="1">
                    <mxGeometry x="80" y="540" width="560" height="60" as="geometry"/>
                </mxCell>
            </root>
        </mxGraphModel>
    </diagram>
</mxfile>